<svg xmlns="http://www.w3.org/2000/svg" xmlns:xlink="http://www.w3.org/1999/xlink" version="1.1" width="60" height="42" viewBox="172.174 155.5 279.0 195.5" role="img" aria-label="אחיטוב תכנון פיננסי">
<defs>
<path id="font_1_13" d="M.48298646 0V.102996829H.41999818V.3471527C.41999818 .4481964 .3659973 .51119998 .2579956 .51119998H.039993287V.40820313H.23699951C.27999879 .40820313 .29299928 .3871765 .29299928 .3471527V.102996829H.039993287V0H.48298646Z"/>
<path id="font_1_12" d="M.23699951 .00019836426V.482193C.23699951 .49819947 .22200012 .51119998 .20498657 .51119998H.039993287V.40820313H.10998535V.00019836426H.23699951Z"/>
<path id="font_1_11" d="M.5509949 .17822266V.4822235C.5509949 .49822999 .5369873 .51123049 .519989 .51123049H.40299989C.3899994 .51123049 .37998963 .50723269 .37199403 .4992218L.23999024 .37722779 .32598878 .29222108 .4249878 .40922547V.17822266C.4249878 .13522339 .3939972 .097229007 .30599977 .097229007 .21798706 .097229007 .18699646 .13623047 .18699646 .17822266L.18598938 .51123049H.05999756V.17822266C.05999756 .07122803 .1499939-.009765625 .30599977-.009765625 .46099855-.009765625 .5509949 .07122803 .5509949 .17822266Z"/>
<path id="font_1_10" d="M.24099732 .23919678V.48320008C.24099732 .49919129 .22698975 .51119998 .20899964 .51119998H.039993287V.40820313H.11399841V.23919678H.24099732Z"/>
<path id="font_1_9" d="M.5249939 .00019836426V.482193C.5249939 .49819947 .5109863 .51119998 .49299623 .51119998H.05999756V.00019836426H.18699646V.40820313H.397995V.00019836426H.5249939Z"/>
<path id="font_1_8" d="M.57598879 .40821839V.5112152H.43199159L.35198976 .2822113 .1559906 .54222109 .05999756 .46922303 .147995 .36221314 .039993287 .00021362305H.17098999L.23298645 .27322389 .30499269 .17021179 .48199464-.02178955 .56900027 .06021118 .43399049 .19921875 .5249939 .40821839H.57598879Z"/>
<clipPath id="clip_2">
<path transform="matrix(1,0,0,-1,0,841.89)" d="M0 0H595.276V841.89H0Z"/>
</clipPath>
<path id="font_1_7" d="M.5349884 .20217896V.3471985C.5349884 .4501953 .46598817 .51119998 .37199403 .51119998H.05999756V.20217896C.05999756 .09718323 .14399719-.0078125 .30299378-.0078125 .46299745-.0078125 .5349884 .09918213 .5349884 .20217896M.4079895 .20118714C.4079895 .15518189 .38198854 .095184329 .30299378 .095184329 .22599793 .095184329 .18699646 .15718079 .18699646 .20118714V.40820313H.33399964C.3880005 .40820313 .4079895 .38719178 .4079895 .3471985V.20118714Z"/>
<path id="font_1_6" d="M.2999878 .16403198V.482193C.2999878 .49819947 .28599549 .51119998 .2679901 .51119998H.07199097V.40820313H.17399597V.16403198C.17399597 .12400818 .1599884 .102996829 .117996219 .102996829H.02999878V0H.13899231C.24699402 0 .2999878 .06298828 .2999878 .16403198Z"/>
<path id="font_1_5" d="M.49699403 .16479492V.482193C.49699403 .49819947 .48298646 .51119998 .46598817 .51119998H.08898926L.051986696 .20574951C.051986696 .18774414 .066986087 .17575073 .084991458 .17675781H.2639923V.27975465H.18099976L.19699097 .40820313H.37098695V.18075562C.37098695 .12890625 .34999085 .102996829 .2829895 .102996829H.039993287V0H.31999208C.4269867 0 .49699403 .07499695 .49699403 .16479492Z"/>
<path id="font_1_1" d=""/>
<path id="font_1_4" d="M.21899414-.1598053V.48120118C.21899414 .49819947 .20498657 .51119998 .18798828 .51119998H.039993287V.40820313H.09298706V-.1598053H.21899414Z"/>
<path id="font_1_3" d="M.42799378 .16503906V.482193C.42799378 .49819947 .4139862 .51119998 .3959961 .51119998H.039993287V.40820313H.3019867V.18104553C.3019867 .12901306 .2809906 .102996829 .21398926 .102996829H.039993287V0H.25099183C.35798646 0 .42799378 .07499695 .42799378 .16503906Z"/>
<path id="font_1_2" d="M.55400088 0V.3471527C.55400088 .4481964 .5 .51119998 .3919983 .51119998H.10798645V.102996829H.02999878V0H.20298767C.22099304 0 .23498535 .0129852299 .23498535 .02999878V.40820313H.37098695C.4139862 .40820313 .4269867 .3871765 .4269867 .3471527V0H.55400088Z"/>
</defs>
<use data-text="&#x05d1;" xlink:href="#font_1_13" transform="matrix(101.25,0,0,-101.25,176.174,275.5656)" fill="#ffffff"/>
<use data-text="&#x05d5;" xlink:href="#font_1_12" transform="matrix(101.25,0,0,-101.25,224.06525,275.5656)" fill="#ffffff"/>
<use data-text="&#x05d8;" xlink:href="#font_1_11" transform="matrix(101.25,0,0,-101.25,249.074,275.5656)" fill="#ffffff"/>
<use data-text="&#x05d9;" xlink:href="#font_1_10" transform="matrix(101.25,0,0,-101.25,305.87525,275.5656)" fill="#ffffff"/>
<use data-text="&#x05d7;" xlink:href="#font_1_9" transform="matrix(101.25,0,0,-101.25,330.2765,275.5656)" fill="#ffffff"/>
<use data-text="&#x05d0;" xlink:href="#font_1_8" transform="matrix(101.25,0,0,-101.25,384.44526,275.5656)" fill="#ffffff"/>
<path transform="matrix(1,0,0,-1,183.0752,210.193)" stroke-width="11.25" stroke-linecap="butt" stroke-miterlimit="4" stroke-linejoin="miter" fill="none" stroke="#00aeef" d="M0 0 80.135 48.531"/>
<path transform="matrix(1,0,0,-1,206.8583,196.08069)" stroke-width="14.625" stroke-linecap="butt" stroke-miterlimit="4" stroke-linejoin="miter" fill="none" stroke="#00aeef" d="M0 0V17.221"/>
<path transform="matrix(1,0,0,-1,180.7238,205.3606)" stroke-width="1.125" stroke-linecap="butt" stroke-miterlimit="4" stroke-linejoin="miter" fill="none" stroke="#00aeef" d="M0 0V-12.395"/>
<path transform="matrix(1,0,0,-1,190.0684,211.88013)" stroke-width="1.125" stroke-linecap="butt" stroke-miterlimit="4" stroke-linejoin="miter" fill="none" stroke="#00aeef" d="M0 0-9.548-5.79"/>
<path transform="matrix(1,0,0,-1,182.0197,205.74329)" d="M0 0-1.563-.989-1.296-11.544 4.496-7.813Z" fill="#00aeef"/>
<g clip-path="url(#clip_2)">
<path transform="matrix(1,0,0,-1,359.7815,290.1731)" d="M0 0C2.839 0 5.141 2.302 5.141 5.141 5.141 7.98 2.839 10.281 0 10.281-2.839 10.281-5.141 7.98-5.141 5.141-5.141 2.302-2.839 0 0 0" fill="#00aeef"/>
</g>
<use data-text="&#x05d9;" xlink:href="#font_1_10" transform="matrix(42,0,0,-42,207.3267,334.2677)" fill="#c9cdd3"/>
<use data-text="&#x05e1;" xlink:href="#font_1_7" transform="matrix(42,0,0,-42,220.59871,334.2677)" fill="#c9cdd3"/>
<use data-text="&#x05e0;" xlink:href="#font_1_6" transform="matrix(42,0,0,-42,246.2187,334.2677)" fill="#c9cdd3"/>
<use data-text="&#x05e0;" xlink:href="#font_1_6" transform="matrix(42,0,0,-42,262.3887,334.2677)" fill="#c9cdd3"/>
<use data-text="&#x05d9;" xlink:href="#font_1_10" transform="matrix(42,0,0,-42,278.55873,334.2677)" fill="#c9cdd3"/>
<use data-text="&#x05e4;" xlink:href="#font_1_5" transform="matrix(42,0,0,-42,291.83073,334.2677)" fill="#c9cdd3"/>
<use data-text=" " xlink:href="#font_1_1" transform="matrix(42,0,0,-42,316.27473,334.2677)" fill="#c9cdd3"/>
<use data-text="&#x05df;" xlink:href="#font_1_4" transform="matrix(42,0,0,-42,325.72474,334.2677)" fill="#c9cdd3"/>
<use data-text="&#x05d5;" xlink:href="#font_1_12" transform="matrix(42,0,0,-42,338.49275,334.2677)" fill="#c9cdd3"/>
<use data-text="&#x05e0;" xlink:href="#font_1_6" transform="matrix(42,0,0,-42,352.01673,334.2677)" fill="#c9cdd3"/>
<use data-text="&#x05db;" xlink:href="#font_1_3" transform="matrix(42,0,0,-42,368.18675,334.2677)" fill="#c9cdd3"/>
<use data-text="&#x05ea;" xlink:href="#font_1_2" transform="matrix(42,0,0,-42,389.73274,334.2677)" fill="#c9cdd3"/>
<path transform="matrix(1,0,0,-1,180.1611,218.49872)" d="M0 0 .934 .509 0 1.371Z" fill="#00aeef"/>
</svg>
